<svg width="14" height="13" viewBox="0 0 14 13" fill="none" xmlns="http://www.w3.org/2000/svg">
<path fill-rule="evenodd" clip-rule="evenodd" d="M8.1085 4.66917L10.6846 4.89667C11.153 4.93458 11.3393 5.53042 10.9827 5.84458L9.02931 7.56708L9.61479 10.1292C9.72125 10.595 9.22625 10.9633 8.82173 10.7142L6.61286 9.35458L4.40399 10.7087C3.99947 10.9579 3.50447 10.5896 3.61092 10.1237L4.19641 7.56708L2.24302 5.84458C1.88641 5.53042 2.07802 4.93458 2.54641 4.89667L5.11721 4.67458L6.12318 2.25875C6.30415 1.82 6.92157 1.82 7.10254 2.25875L8.1085 4.66917ZM6.61286 3.30417V8.34167L8.61947 9.57667L8.08721 7.25833L9.85431 5.69833L7.52302 5.4925L6.61286 3.30417Z" fill="#FFD000"/>
</svg>
