<svg width="14" height="19" viewBox="0 0 14 19" fill="none" xmlns="http://www.w3.org/2000/svg">
<path fill-rule="evenodd" clip-rule="evenodd" d="M9.99999 9C9.99999 10.66 8.65999 12 6.99999 12C5.33999 12 3.99999 10.66 3.99999 9V3C3.99999 1.34 5.33999 0 6.99999 0C8.65999 0 9.99999 1.34 9.99999 3V9ZM11.93 9.85C12.01 9.36 12.42 9 12.91 9C13.52 9 14.01 9.54 13.91 10.14C13.42 13.14 11.02 15.49 7.99999 15.92V18C7.99999 18.55 7.54999 19 6.99999 19C6.44999 19 5.99999 18.55 5.99999 18V15.92C2.97999 15.49 0.579987 13.14 0.0899865 10.14C-1.35005e-05 9.54 0.479987 9 1.08999 9C1.57999 9 1.98999 9.36 2.06999 9.85C2.47999 12.2 4.52999 14 6.99999 14C9.46999 14 11.52 12.2 11.93 9.85Z" fill="white"/>
</svg>
