<svg width="20" height="20" viewBox="0 0 20 20" fill="none" xmlns="http://www.w3.org/2000/svg">
<path fill-rule="evenodd" clip-rule="evenodd" d="M12.9358 12.1667H13.7917L19.1975 17.5833L17.5833 19.1975L12.1667 13.7917V12.9358L11.8742 12.6325C10.6392 13.6942 9.03583 14.3333 7.29167 14.3333C3.4025 14.3333 0.25 11.1808 0.25 7.29167C0.25 3.4025 3.4025 0.25 7.29167 0.25C11.1808 0.25 14.3333 3.4025 14.3333 7.29167C14.3333 9.03583 13.6942 10.6392 12.6325 11.8742L12.9358 12.1667ZM2.41667 7.29167C2.41667 9.98917 4.59417 12.1667 7.29167 12.1667C9.98917 12.1667 12.1667 9.98917 12.1667 7.29167C12.1667 4.59417 9.98917 2.41667 7.29167 2.41667C4.59417 2.41667 2.41667 4.59417 2.41667 7.29167Z" fill="white"/>
</svg>
